<?xml version="1.0" encoding="UTF-8"?>
<svg id="Layer_1" xmlns="http://www.w3.org/2000/svg" version="1.1" viewBox="0 0 100 100">
  <!-- Generator: Adobe Illustrator 29.1.0, SVG Export Plug-In . SVG Version: 2.1.0 Build 142)  -->
  <defs>
    <style>
      .st0 {
        fill: none;
      }

      .st0, .st1 {
        stroke: #fff;
        stroke-miterlimit: 10;
        stroke-width: 6px;
      }

      .st2 {
        fill: #ec008c;
      }

      .st1 {
        fill: #2e3192;
      }
    </style>
  </defs>
  <rect class="st1" x="4.19" y="5.4" width="89.87" height="86.29" rx="12" ry="12"/>
  <g>
    <path class="st2" d="M83.97,15.6v24.14h-12.97c-3.62,0-6.56,2.94-6.56,6.55v10.33c0,3.61,2.94,6.55,6.56,6.55h12.97v21.22L24.39,50,83.97,15.6M84.72,14.3L22.89,49.99l61.83,35.7v-23.27h-13.72c-3.2,0-5.81-2.61-5.81-5.8v-10.33c0-3.19,2.61-5.8,5.81-5.8h13.72V14.3h0Z"/>
    <path class="st2" d="M74.12,17.77v20.73h-11.72c-4.31,0-7.81,3.5-7.81,7.8v10.33c0,4.3,3.5,7.8,7.81,7.8h11.72v17.81L18.29,50l55.83-32.23M76.12,14.3L14.29,49.99l61.83,35.7v-23.27h-13.72c-3.2,0-5.81-2.61-5.81-5.8v-10.33c0-3.19,2.61-5.8,5.81-5.8h13.72V14.3h0Z"/>
    <path class="st2" d="M63.02,19.5v17.99h-10.72c-4.86,0-8.81,3.95-8.81,8.8v10.33c0,4.85,3.95,8.8,8.81,8.8h10.72v15.07L10.19,50l52.83-30.49M66.02,14.31L4.19,49.99l61.83,35.7v-23.27h-13.72c-3.2,0-5.81-2.61-5.81-5.8v-10.33c0-3.19,2.61-5.8,5.81-5.8h13.72V14.31h0Z"/>
  </g>
  <path class="st0" d="M94.06,57.91h-46.42v14.82L8.27,50l39.37-22.73v16.68h46.42v13.96Z"/>
</svg>